<?xml version="1.0" encoding="utf-8"?>
<svg version="1.1" id="Calque_1" xmlns="http://www.w3.org/2000/svg" xmlns:xlink="http://www.w3.org/1999/xlink" x="0px" y="0px" viewBox="0 0 18 28" style="enable-background:new 0 0 38.3 44.6;" xml:space="preserve">
<defs><style>.bf7ff1e7-fda2-4a3d-877e-c1627e94aedd{fill:#2a3472;}</style></defs><path class="bf7ff1e7-fda2-4a3d-877e-c1627e94aedd" d="M16,2A8.92,8.92,0,0,0,9.63,4.68,9.16,9.16,0,0,0,7,11.12v1.13a22.13,22.13,0,0,0,6.66,15.86h0l1.64,1.61a1,1,0,0,0,1.4,0l1.64-1.61h0A22.13,22.13,0,0,0,25,12.25V11.12a9.16,9.16,0,0,0-2.63-6.44A8.92,8.92,0,0,0,16,2Zm0,2a6.94,6.94,0,0,1,4.94,2.08h0a7.21,7.21,0,0,1,2.05,5v1.13A20.18,20.18,0,0,1,17,26.68L16,27.6l-.95-.92A20.18,20.18,0,0,1,9,12.25V11.12a7.21,7.21,0,0,1,2.05-5h0A6.94,6.94,0,0,1,16,4Z" transform="translate(-7 -2)"></path><path class="bf7ff1e7-fda2-4a3d-877e-c1627e94aedd" d="M16,7a4,4,0,1,0,4,4A4,4,0,0,0,16,7Zm0,2a2,2,0,1,1-2,2A2,2,0,0,1,16,9Z" transform="translate(-7 -2)"></path></svg>