<?xml version="1.0" encoding="utf-8"?>
<svg version="1.1" id="Calque_1" xmlns="http://www.w3.org/2000/svg" xmlns:xlink="http://www.w3.org/1999/xlink" x="0px" y="0px" viewBox="0 0 88.2 62" style="enable-background:new 0 0 38.3 44.6;" xml:space="preserve">
<defs><style>.aaed1d0b-42fa-4146-9828-4660a7b6a431{fill:none;}.a35b5bf4-d8c4-45c8-aee0-4d59c968552e{clip-path:url(#2b1aa400-c2a5-46cf-aedb-f95223878629);}.\31 11393ee-38c5-4b62-ab2a-292475077e9b{fill:white;}</style><clipPath id="2b1aa400-c2a5-46cf-aedb-f95223878629"><rect class="aaed1d0b-42fa-4146-9828-4660a7b6a431" width="88.2" height="62"></rect></clipPath></defs><g class="a35b5bf4-d8c4-45c8-aee0-4d59c968552e"><path class="111393ee-38c5-4b62-ab2a-292475077e9b" d="M44.1,62A46.57,46.57,0,0,0,87.6,32.5l.6-1.5-.6-1.5a46.82,46.82,0,0,0-87,0L0,31l.6,1.5A46.57,46.57,0,0,0,44.1,62m0-54A38.74,38.74,0,0,1,79.6,31a38.9,38.9,0,0,1-71,0A38.74,38.74,0,0,1,44.1,8"></path><path class="111393ee-38c5-4b62-ab2a-292475077e9b" d="M44.1,15a16,16,0,1,1-16,16,16,16,0,0,1,16-16"></path></g></svg>