<?xml version="1.0" encoding="utf-8"?>
<svg version="1.1" id="Calque_1" xmlns="http://www.w3.org/2000/svg" xmlns:xlink="http://www.w3.org/1999/xlink" x="0px" y="0px" viewBox="0 0 48.1 41.5" style="enable-background:new 0 0 38.3 44.6;" xml:space="preserve">
<defs><style>.afde971f-fd1c-46f0-8932-3f98fb162a3c{fill:#2a3472;}</style></defs><path class="afde971f-fd1c-46f0-8932-3f98fb162a3c" d="M47.4,21.7,44,16.4l2.7-2.7a1,1,0,1,0-1.4-1.4l-2.2,2.2L40.9,7.4a5.32,5.32,0,0,0-5.1-4.1H12.2a5.17,5.17,0,0,0-5.1,4L4.8,14.5,2.6,12.3a1,1,0,0,0-1.4,0,1,1,0,0,0,0,1.4L4,16.4.6,21.8A4.65,4.65,0,0,0,0,24.1V36a2.48,2.48,0,0,0,2.5,2.5H3.7v3.3a3,3,0,0,0,3,3h3.4a3,3,0,0,0,3-3V38.5H35v3.3a3,3,0,0,0,3,3h3.4a3,3,0,0,0,3-3V38.5h1.2A2.48,2.48,0,0,0,48.1,36V24.1A7.28,7.28,0,0,0,47.4,21.7ZM5.8,17.3H42.2l3.1,5H2.6ZM9,7.8a3.22,3.22,0,0,1,3.2-2.5H35.8A3.29,3.29,0,0,1,39,7.9l2.3,7.5H6.7Zm2.1,34a.94.94,0,0,1-1,1H6.7a.94.94,0,0,1-1-1V38.5h5.4Zm31.2,0a.94.94,0,0,1-1,1H37.9a.94.94,0,0,1-1-1V38.5h5.4Zm3.2-5.4H2.5a.47.47,0,0,1-.5-.5V24.3H46V35.9A.47.47,0,0,1,45.5,36.4Z" transform="translate(0 -3.3)"></path><path class="afde971f-fd1c-46f0-8932-3f98fb162a3c" d="M39.2,25.9a4.5,4.5,0,1,0,4.5,4.5A4.55,4.55,0,0,0,39.2,25.9Zm0,7.1a2.5,2.5,0,1,1,2.5-2.5A2.48,2.48,0,0,1,39.2,33Z" transform="translate(0 -3.3)"></path><path class="afde971f-fd1c-46f0-8932-3f98fb162a3c" d="M8.8,25.9a4.5,4.5,0,1,0,4.5,4.5A4.48,4.48,0,0,0,8.8,25.9Zm0,7.1a2.5,2.5,0,1,1,2.5-2.5A2.48,2.48,0,0,1,8.8,33Z" transform="translate(0 -3.3)"></path><path class="afde971f-fd1c-46f0-8932-3f98fb162a3c" d="M31,27.6H17a1,1,0,0,0,0,2H31a1,1,0,0,0,0-2Z" transform="translate(0 -3.3)"></path><path class="afde971f-fd1c-46f0-8932-3f98fb162a3c" d="M28.6,31.3H19.4a1,1,0,0,0,0,2h9.2a.94.94,0,0,0,1-1A1,1,0,0,0,28.6,31.3Z" transform="translate(0 -3.3)"></path></svg>