<?xml version="1.0" encoding="utf-8"?>
<svg version="1.1" id="Calque_1" xmlns="http://www.w3.org/2000/svg" xmlns:xlink="http://www.w3.org/1999/xlink" x="0px" y="0px" viewBox="0 0 18 18" style="enable-background:new 0 0 38.3 44.6;" xml:space="preserve">
<defs><style>.eaa1ae9a-e500-4a65-a972-4cd0a8e14937{fill:none;}.b319aad2-3213-41eb-a4d5-7c269748d556{clip-path:url(#809f3d9a-b2d2-4a4a-9a3a-e7b2139b5499);}.\33 7456bd9-0110-4d19-9a9f-61361de36452{fill:#ffff;}</style><clipPath id="809f3d9a-b2d2-4a4a-9a3a-e7b2139b5499"><rect class="eaa1ae9a-e500-4a65-a972-4cd0a8e14937" width="18" height="18"></rect></clipPath></defs><g class="b319aad2-3213-41eb-a4d5-7c269748d556"><path class="37456bd9-0110-4d19-9a9f-61361de36452" d="M17,12.5a11.36,11.36,0,0,1-3.57-.57,1,1,0,0,0-1,.24l-2.2,2.2A15,15,0,0,1,3.62,7.78l2.2-2.21a1,1,0,0,0,.25-1A11.36,11.36,0,0,1,5.5,1a1,1,0,0,0-1-1H1A1,1,0,0,0,0,1,17,17,0,0,0,17,18a1,1,0,0,0,1-1V13.5a1,1,0,0,0-1-1"></path></g></svg>