<?xml version="1.0" encoding="utf-8"?>
<svg version="1.1" id="Calque_1" xmlns="http://www.w3.org/2000/svg" xmlns:xlink="http://www.w3.org/1999/xlink" x="0px" y="0px" viewBox="0 0 37.6 48.5" style="enable-background:new 0 0 38.3 44.6;" xml:space="preserve">
<defs><style>.bd3b20b5-07f7-4748-adf4-18269a7d8db6{fill:#2a3472;stroke:#000;stroke-miterlimit:10;stroke-width:0.5px;}</style></defs><path class="bd3b20b5-07f7-4748-adf4-18269a7d8db6" d="M39.4,3.3a37.58,37.58,0,0,0-30.8,0A5.16,5.16,0,0,0,5.5,8.1V36.8A3.22,3.22,0,0,0,8.7,40h3.1L7,46.4a1.08,1.08,0,0,0,.2,1.4,1.42,1.42,0,0,0,.6.2.91.91,0,0,0,.8-.4l2-2.8H37.3l2,2.8a.91.91,0,0,0,.8.4,1.42,1.42,0,0,0,.6-.2,1.08,1.08,0,0,0,.2-1.4L36.3,40h3.1a3.16,3.16,0,0,0,3.2-3.2V8.1A5.42,5.42,0,0,0,39.4,3.3ZM9.4,5.1A34.81,34.81,0,0,1,24,2,34.81,34.81,0,0,1,38.6,5.1a3.19,3.19,0,0,1,1.9,3v.8H7.5V8.1A3.19,3.19,0,0,1,9.4,5.1Zm-1.9,18V10.9H23V23.1ZM25,10.9H40.5V23.1H25ZM35.9,42.8H12.1L14.2,40H33.8ZM39.4,38H8.6a1.22,1.22,0,0,1-1.2-1.2V25.1H40.5V36.8A1.13,1.13,0,0,1,39.4,38Z" transform="translate(-5.25 0.25)"></path><path class="bd3b20b5-07f7-4748-adf4-18269a7d8db6" d="M34.3,27.1a4,4,0,1,0,4,4A4,4,0,0,0,34.3,27.1Zm0,6a2,2,0,1,1,2-2A2,2,0,0,1,34.3,33.1Z" transform="translate(-5.25 0.25)"></path><path class="bd3b20b5-07f7-4748-adf4-18269a7d8db6" d="M13.7,27.1a4,4,0,1,0,4,4A4,4,0,0,0,13.7,27.1Zm0,6a2,2,0,1,1,2-2A2,2,0,0,1,13.7,33.1Z" transform="translate(-5.25 0.25)"></path></svg>